<svg width="528" height="404" viewBox="0 0 528 404" fill="none" xmlns="http://www.w3.org/2000/svg">
<path d="M308.062 220.231C309.004 212.455 309.711 204.679 309.711 196.668C309.711 188.656 309.004 180.88 308.062 173.104H347.884C349.769 180.645 350.947 188.538 350.947 196.668C350.947 204.797 349.769 212.691 347.884 220.231M287.208 285.736C294.277 272.659 299.697 258.521 303.467 243.794H338.223C326.808 263.449 308.699 278.338 287.208 285.736ZM284.263 220.231H229.125C227.947 212.455 227.24 204.679 227.24 196.668C227.24 188.656 227.947 180.762 229.125 173.104H284.263C285.323 180.762 286.148 188.656 286.148 196.668C286.148 204.679 285.323 212.455 284.263 220.231ZM256.694 290.449C246.915 276.311 239.022 260.642 234.191 243.794H279.197C274.366 260.642 266.473 276.311 256.694 290.449ZM209.568 149.541H175.165C186.462 129.833 204.558 114.921 226.062 107.599C218.993 120.676 213.691 134.814 209.568 149.541ZM175.165 243.794H209.568C213.691 258.521 218.993 272.659 226.062 285.736C204.603 278.334 186.533 263.442 175.165 243.794ZM165.504 220.231C163.619 212.691 162.441 204.797 162.441 196.668C162.441 188.538 163.619 180.645 165.504 173.104H205.326C204.384 180.88 203.677 188.656 203.677 196.668C203.677 204.679 204.384 212.455 205.326 220.231M256.694 102.768C266.473 116.906 274.366 132.693 279.197 149.541H234.191C239.022 132.693 246.915 116.906 256.694 102.768ZM338.223 149.541H303.467C299.78 134.949 294.319 120.864 287.208 107.599C308.886 115.021 326.912 129.984 338.223 149.541ZM256.694 78.8516C191.542 78.8516 138.878 131.869 138.878 196.668C138.878 227.914 151.291 257.881 173.385 279.976C184.326 290.916 197.314 299.595 211.608 305.515C225.902 311.436 241.222 314.484 256.694 314.484C287.941 314.484 317.908 302.071 340.002 279.976C362.097 257.881 374.51 227.914 374.51 196.668C374.51 181.196 371.463 165.875 365.542 151.581C359.621 137.287 350.943 124.299 340.002 113.359C329.062 102.419 316.074 93.7406 301.78 87.8198C287.486 81.899 272.166 78.8516 256.694 78.8516Z" fill="black"/>
<path d="M11.1294 196V48.9484H46.6716V167.135H107.847V196H11.1294Z" fill="black"/>
<path d="M402.884 353.967V206.915H463.629C474.639 206.915 484.14 208.902 492.134 212.875C500.176 216.8 506.375 222.449 510.731 229.82C515.087 237.144 517.265 245.832 517.265 255.885C517.265 266.081 515.039 274.745 510.588 281.877C506.136 288.962 499.817 294.371 491.632 298.104C483.446 301.79 473.753 303.633 462.552 303.633H424.137V275.63H455.946C461.307 275.63 465.783 274.936 469.373 273.548C473.011 272.112 475.763 269.958 477.63 267.086C479.497 264.166 480.431 260.432 480.431 255.885C480.431 251.337 479.497 247.579 477.63 244.612C475.763 241.596 473.011 239.346 469.373 237.862C465.735 236.33 461.259 235.564 455.946 235.564H438.426V353.967H402.884ZM485.672 286.76L522.292 353.967H483.518L447.617 286.76H485.672Z" fill="black"/>
<rect x="161.324" y="171.702" width="190.999" height="51.6662" rx="8.49925" fill="white"/>
<rect x="161.324" y="171.702" width="190.999" height="51.6662" rx="8.49925" stroke="black" stroke-width="1.88872"/>
<mask id="path-5-outside-1_39_84" maskUnits="userSpaceOnUse" x="167.823" y="181.535" width="176" height="33" fill="black">
<rect fill="white" x="167.823" y="181.535" width="176" height="33"/>
<path d="M174.277 211.535H170.789L180.877 184.063H184.311L194.398 211.535H190.911L182.701 188.409H182.486L174.277 211.535ZM175.565 200.804H189.623V203.755H175.565V200.804ZM198.677 211.535V184.063H201.843V194.204H202.111C202.344 193.846 202.666 193.39 203.077 192.836C203.498 192.272 204.097 191.772 204.875 191.333C205.662 190.886 206.726 190.663 208.067 190.663C209.802 190.663 211.331 191.096 212.655 191.964C213.979 192.831 215.011 194.061 215.754 195.653C216.496 197.245 216.867 199.123 216.867 201.287C216.867 203.469 216.496 205.36 215.754 206.961C215.011 208.553 213.983 209.787 212.668 210.663C211.354 211.531 209.838 211.964 208.121 211.964C206.797 211.964 205.738 211.745 204.942 211.307C204.146 210.86 203.533 210.355 203.104 209.791C202.675 209.219 202.344 208.745 202.111 208.369H201.736V211.535H198.677ZM201.79 201.233C201.79 202.789 202.018 204.162 202.474 205.351C202.93 206.532 203.596 207.457 204.472 208.128C205.349 208.79 206.422 209.121 207.692 209.121C209.015 209.121 210.12 208.772 211.005 208.074C211.899 207.368 212.57 206.42 213.017 205.23C213.473 204.032 213.701 202.7 213.701 201.233C213.701 199.784 213.478 198.479 213.031 197.316C212.592 196.145 211.926 195.219 211.032 194.539C210.147 193.851 209.033 193.506 207.692 193.506C206.404 193.506 205.322 193.833 204.446 194.486C203.569 195.13 202.907 196.033 202.46 197.195C202.013 198.349 201.79 199.695 201.79 201.233ZM230.08 211.964C228.22 211.964 226.588 211.522 225.184 210.636C223.789 209.751 222.698 208.512 221.911 206.921C221.133 205.329 220.744 203.469 220.744 201.34C220.744 199.194 221.133 197.321 221.911 195.72C222.698 194.119 223.789 192.876 225.184 191.991C226.588 191.105 228.22 190.663 230.08 190.663C231.94 190.663 233.568 191.105 234.963 191.991C236.367 192.876 237.458 194.119 238.236 195.72C239.023 197.321 239.416 199.194 239.416 201.34C239.416 203.469 239.023 205.329 238.236 206.921C237.458 208.512 236.367 209.751 234.963 210.636C233.568 211.522 231.94 211.964 230.08 211.964ZM230.08 209.121C231.493 209.121 232.656 208.758 233.568 208.034C234.48 207.31 235.155 206.357 235.593 205.177C236.032 203.996 236.251 202.718 236.251 201.34C236.251 199.963 236.032 198.68 235.593 197.49C235.155 196.301 234.48 195.34 233.568 194.606C232.656 193.873 231.493 193.506 230.08 193.506C228.667 193.506 227.505 193.873 226.592 194.606C225.68 195.34 225.005 196.301 224.567 197.49C224.129 198.68 223.91 199.963 223.91 201.34C223.91 202.718 224.129 203.996 224.567 205.177C225.005 206.357 225.68 207.31 226.592 208.034C227.505 208.758 228.667 209.121 230.08 209.121ZM257.234 203.111V190.931H260.4V211.535H257.234V208.047H257.019C256.536 209.094 255.785 209.984 254.766 210.717C253.746 211.441 252.458 211.803 250.902 211.803C249.615 211.803 248.47 211.522 247.468 210.958C246.467 210.386 245.68 209.527 245.107 208.383C244.535 207.229 244.249 205.776 244.249 204.023V190.931H247.415V203.809C247.415 205.311 247.835 206.509 248.676 207.404C249.525 208.298 250.607 208.745 251.922 208.745C252.709 208.745 253.509 208.544 254.323 208.141C255.146 207.739 255.834 207.122 256.389 206.29C256.952 205.459 257.234 204.399 257.234 203.111ZM275.159 190.931V193.614H264.481V190.931H275.159ZM267.593 185.994H270.759V205.633C270.759 206.527 270.888 207.198 271.148 207.645C271.416 208.083 271.756 208.378 272.167 208.53C272.588 208.673 273.03 208.745 273.495 208.745C273.844 208.745 274.13 208.727 274.354 208.691C274.577 208.647 274.756 208.611 274.89 208.584L275.534 211.428C275.32 211.508 275.02 211.589 274.635 211.669C274.251 211.759 273.764 211.803 273.173 211.803C272.279 211.803 271.403 211.611 270.544 211.227C269.695 210.842 268.988 210.256 268.425 209.469C267.87 208.682 267.593 207.69 267.593 206.491V185.994ZM290.974 184.063H294.945L304.281 206.867H304.603L313.939 184.063H317.91V211.535H314.798V190.663H314.529L305.944 211.535H302.939L294.354 190.663H294.086V211.535H290.974V184.063ZM332.789 211.964C330.804 211.964 329.092 211.526 327.652 210.65C326.221 209.764 325.117 208.53 324.338 206.947C323.569 205.356 323.185 203.505 323.185 201.394C323.185 199.283 323.569 197.423 324.338 195.814C325.117 194.195 326.199 192.934 327.585 192.031C328.98 191.119 330.607 190.663 332.468 190.663C333.541 190.663 334.6 190.841 335.647 191.199C336.693 191.557 337.645 192.138 338.504 192.943C339.362 193.739 340.047 194.794 340.556 196.109C341.066 197.423 341.321 199.042 341.321 200.965V202.306H325.438V199.57H338.101C338.101 198.407 337.869 197.37 337.404 196.458C336.948 195.545 336.295 194.826 335.445 194.298C334.605 193.77 333.612 193.506 332.468 193.506C331.207 193.506 330.116 193.819 329.194 194.445C328.282 195.062 327.58 195.867 327.088 196.86C326.597 197.853 326.351 198.917 326.351 200.053V201.877C326.351 203.433 326.619 204.752 327.155 205.834C327.701 206.907 328.457 207.726 329.422 208.289C330.388 208.843 331.511 209.121 332.789 209.121C333.621 209.121 334.372 209.004 335.043 208.772C335.723 208.53 336.308 208.173 336.8 207.699C337.292 207.216 337.672 206.617 337.941 205.901L340.999 206.76C340.677 207.797 340.136 208.709 339.376 209.496C338.616 210.274 337.677 210.882 336.559 211.321C335.441 211.75 334.185 211.964 332.789 211.964Z"/>
</mask>
<path d="M174.277 211.535H170.789L180.877 184.063H184.311L194.398 211.535H190.911L182.701 188.409H182.486L174.277 211.535ZM175.565 200.804H189.623V203.755H175.565V200.804ZM198.677 211.535V184.063H201.843V194.204H202.111C202.344 193.846 202.666 193.39 203.077 192.836C203.498 192.272 204.097 191.772 204.875 191.333C205.662 190.886 206.726 190.663 208.067 190.663C209.802 190.663 211.331 191.096 212.655 191.964C213.979 192.831 215.011 194.061 215.754 195.653C216.496 197.245 216.867 199.123 216.867 201.287C216.867 203.469 216.496 205.36 215.754 206.961C215.011 208.553 213.983 209.787 212.668 210.663C211.354 211.531 209.838 211.964 208.121 211.964C206.797 211.964 205.738 211.745 204.942 211.307C204.146 210.86 203.533 210.355 203.104 209.791C202.675 209.219 202.344 208.745 202.111 208.369H201.736V211.535H198.677ZM201.79 201.233C201.79 202.789 202.018 204.162 202.474 205.351C202.93 206.532 203.596 207.457 204.472 208.128C205.349 208.79 206.422 209.121 207.692 209.121C209.015 209.121 210.12 208.772 211.005 208.074C211.899 207.368 212.57 206.42 213.017 205.23C213.473 204.032 213.701 202.7 213.701 201.233C213.701 199.784 213.478 198.479 213.031 197.316C212.592 196.145 211.926 195.219 211.032 194.539C210.147 193.851 209.033 193.506 207.692 193.506C206.404 193.506 205.322 193.833 204.446 194.486C203.569 195.13 202.907 196.033 202.46 197.195C202.013 198.349 201.79 199.695 201.79 201.233ZM230.08 211.964C228.22 211.964 226.588 211.522 225.184 210.636C223.789 209.751 222.698 208.512 221.911 206.921C221.133 205.329 220.744 203.469 220.744 201.34C220.744 199.194 221.133 197.321 221.911 195.72C222.698 194.119 223.789 192.876 225.184 191.991C226.588 191.105 228.22 190.663 230.08 190.663C231.94 190.663 233.568 191.105 234.963 191.991C236.367 192.876 237.458 194.119 238.236 195.72C239.023 197.321 239.416 199.194 239.416 201.34C239.416 203.469 239.023 205.329 238.236 206.921C237.458 208.512 236.367 209.751 234.963 210.636C233.568 211.522 231.94 211.964 230.08 211.964ZM230.08 209.121C231.493 209.121 232.656 208.758 233.568 208.034C234.48 207.31 235.155 206.357 235.593 205.177C236.032 203.996 236.251 202.718 236.251 201.34C236.251 199.963 236.032 198.68 235.593 197.49C235.155 196.301 234.48 195.34 233.568 194.606C232.656 193.873 231.493 193.506 230.08 193.506C228.667 193.506 227.505 193.873 226.592 194.606C225.68 195.34 225.005 196.301 224.567 197.49C224.129 198.68 223.91 199.963 223.91 201.34C223.91 202.718 224.129 203.996 224.567 205.177C225.005 206.357 225.68 207.31 226.592 208.034C227.505 208.758 228.667 209.121 230.08 209.121ZM257.234 203.111V190.931H260.4V211.535H257.234V208.047H257.019C256.536 209.094 255.785 209.984 254.766 210.717C253.746 211.441 252.458 211.803 250.902 211.803C249.615 211.803 248.47 211.522 247.468 210.958C246.467 210.386 245.68 209.527 245.107 208.383C244.535 207.229 244.249 205.776 244.249 204.023V190.931H247.415V203.809C247.415 205.311 247.835 206.509 248.676 207.404C249.525 208.298 250.607 208.745 251.922 208.745C252.709 208.745 253.509 208.544 254.323 208.141C255.146 207.739 255.834 207.122 256.389 206.29C256.952 205.459 257.234 204.399 257.234 203.111ZM275.159 190.931V193.614H264.481V190.931H275.159ZM267.593 185.994H270.759V205.633C270.759 206.527 270.888 207.198 271.148 207.645C271.416 208.083 271.756 208.378 272.167 208.53C272.588 208.673 273.03 208.745 273.495 208.745C273.844 208.745 274.13 208.727 274.354 208.691C274.577 208.647 274.756 208.611 274.89 208.584L275.534 211.428C275.32 211.508 275.02 211.589 274.635 211.669C274.251 211.759 273.764 211.803 273.173 211.803C272.279 211.803 271.403 211.611 270.544 211.227C269.695 210.842 268.988 210.256 268.425 209.469C267.87 208.682 267.593 207.69 267.593 206.491V185.994ZM290.974 184.063H294.945L304.281 206.867H304.603L313.939 184.063H317.91V211.535H314.798V190.663H314.529L305.944 211.535H302.939L294.354 190.663H294.086V211.535H290.974V184.063ZM332.789 211.964C330.804 211.964 329.092 211.526 327.652 210.65C326.221 209.764 325.117 208.53 324.338 206.947C323.569 205.356 323.185 203.505 323.185 201.394C323.185 199.283 323.569 197.423 324.338 195.814C325.117 194.195 326.199 192.934 327.585 192.031C328.98 191.119 330.607 190.663 332.468 190.663C333.541 190.663 334.6 190.841 335.647 191.199C336.693 191.557 337.645 192.138 338.504 192.943C339.362 193.739 340.047 194.794 340.556 196.109C341.066 197.423 341.321 199.042 341.321 200.965V202.306H325.438V199.57H338.101C338.101 198.407 337.869 197.37 337.404 196.458C336.948 195.545 336.295 194.826 335.445 194.298C334.605 193.77 333.612 193.506 332.468 193.506C331.207 193.506 330.116 193.819 329.194 194.445C328.282 195.062 327.58 195.867 327.088 196.86C326.597 197.853 326.351 198.917 326.351 200.053V201.877C326.351 203.433 326.619 204.752 327.155 205.834C327.701 206.907 328.457 207.726 329.422 208.289C330.388 208.843 331.511 209.121 332.789 209.121C333.621 209.121 334.372 209.004 335.043 208.772C335.723 208.53 336.308 208.173 336.8 207.699C337.292 207.216 337.672 206.617 337.941 205.901L340.999 206.76C340.677 207.797 340.136 208.709 339.376 209.496C338.616 210.274 337.677 210.882 336.559 211.321C335.441 211.75 334.185 211.964 332.789 211.964Z" fill="black"/>
<path d="M174.277 211.535V213.424H175.611L176.057 212.167L174.277 211.535ZM170.789 211.535L169.016 210.884L168.084 213.424H170.789V211.535ZM180.877 184.063V182.174H179.558L179.104 183.412L180.877 184.063ZM184.311 184.063L186.084 183.412L185.629 182.174H184.311V184.063ZM194.398 211.535V213.424H197.104L196.171 210.884L194.398 211.535ZM190.911 211.535L189.131 212.167L189.577 213.424H190.911V211.535ZM182.701 188.409L184.481 187.777L184.035 186.52H182.701V188.409ZM182.486 188.409V186.52H181.153L180.707 187.777L182.486 188.409ZM175.565 200.804V198.915H173.676V200.804H175.565ZM189.623 200.804H191.512V198.915H189.623V200.804ZM189.623 203.755V205.644H191.512V203.755H189.623ZM175.565 203.755H173.676V205.644H175.565V203.755ZM174.277 209.646H170.789V213.424H174.277V209.646ZM172.562 212.186L182.65 184.714L179.104 183.412L169.016 210.884L172.562 212.186ZM180.877 185.952H184.311V182.174H180.877V185.952ZM182.538 184.714L192.625 212.186L196.171 210.884L186.084 183.412L182.538 184.714ZM194.398 209.646H190.911V213.424H194.398V209.646ZM192.69 210.903L184.481 187.777L180.921 189.041L189.131 212.167L192.69 210.903ZM182.701 186.52H182.486V190.298H182.701V186.52ZM180.707 187.777L172.497 210.903L176.057 212.167L184.266 189.041L180.707 187.777ZM175.565 202.693H189.623V198.915H175.565V202.693ZM187.734 200.804V203.755H191.512V200.804H187.734ZM189.623 201.866H175.565V205.644H189.623V201.866ZM177.453 203.755V200.804H173.676V203.755H177.453ZM198.677 211.535H196.789V213.424H198.677V211.535ZM198.677 184.063V182.174H196.789V184.063H198.677ZM201.843 184.063H203.732V182.174H201.843V184.063ZM201.843 194.204H199.954V196.093H201.843V194.204ZM202.111 194.204V196.093H203.136L203.695 195.233L202.111 194.204ZM203.077 192.836L201.563 191.706L201.56 191.71L203.077 192.836ZM204.875 191.333L205.802 192.979L205.808 192.976L204.875 191.333ZM212.655 191.964L213.69 190.384L213.69 190.384L212.655 191.964ZM215.754 206.961L217.465 207.759L217.467 207.755L215.754 206.961ZM212.668 210.663L213.709 212.24L213.716 212.235L212.668 210.663ZM204.942 211.307L204.017 212.954L204.024 212.958L204.031 212.962L204.942 211.307ZM203.104 209.791L201.593 210.925L201.597 210.93L201.602 210.936L203.104 209.791ZM202.111 208.369L203.717 207.375L203.164 206.481H202.111V208.369ZM201.736 208.369V206.481H199.847V208.369H201.736ZM201.736 211.535V213.424H203.625V211.535H201.736ZM202.474 205.351L200.71 206.027L200.712 206.032L202.474 205.351ZM204.472 208.128L203.324 209.628L203.334 209.635L204.472 208.128ZM211.005 208.074L212.174 209.558L212.176 209.556L211.005 208.074ZM213.017 205.23L211.252 204.559L211.249 204.566L213.017 205.23ZM213.031 197.316L211.262 197.978L211.265 197.986L211.268 197.994L213.031 197.316ZM211.032 194.539L209.872 196.03L209.881 196.037L209.889 196.043L211.032 194.539ZM204.446 194.486L205.564 196.008L205.574 196L204.446 194.486ZM202.46 197.195L204.221 197.878L204.223 197.873L202.46 197.195ZM200.566 211.535V184.063H196.789V211.535H200.566ZM198.677 185.952H201.843V182.174H198.677V185.952ZM199.954 184.063V194.204H203.732V184.063H199.954ZM201.843 196.093H202.111V192.315H201.843V196.093ZM203.695 195.233C203.897 194.922 204.194 194.501 204.594 193.961L201.56 191.71C201.138 192.28 200.79 192.771 200.528 193.175L203.695 195.233ZM204.591 193.965C204.817 193.662 205.193 193.322 205.802 192.979L203.948 189.688C203 190.221 202.178 190.883 201.563 191.706L204.591 193.965ZM205.808 192.976C206.206 192.75 206.907 192.551 208.067 192.551V188.774C206.545 188.774 205.118 189.023 203.942 189.691L205.808 192.976ZM208.067 192.551C209.471 192.551 210.633 192.897 211.62 193.543L213.69 190.384C212.03 189.296 210.133 188.774 208.067 188.774V192.551ZM211.62 193.543C212.618 194.198 213.431 195.141 214.042 196.451L217.465 194.855C216.592 192.98 215.339 191.465 213.69 190.384L211.62 193.543ZM214.042 196.451C214.644 197.742 214.978 199.336 214.978 201.287H218.756C218.756 198.909 218.348 196.747 217.465 194.855L214.042 196.451ZM214.978 201.287C214.978 203.258 214.643 204.866 214.04 206.166L217.467 207.755C218.349 205.854 218.756 203.68 218.756 201.287H214.978ZM214.042 206.163C213.429 207.477 212.616 208.428 211.621 209.092L213.716 212.235C215.35 211.145 216.594 209.629 217.465 207.759L214.042 206.163ZM211.628 209.087C210.65 209.732 209.503 210.076 208.121 210.076V213.853C210.173 213.853 212.058 213.329 213.709 212.24L211.628 209.087ZM208.121 210.076C206.98 210.076 206.271 209.883 205.853 209.653L204.031 212.962C205.205 213.608 206.615 213.853 208.121 213.853V210.076ZM205.867 209.66C205.233 209.305 204.841 208.955 204.606 208.647L201.602 210.936C202.225 211.754 203.058 212.415 204.017 212.954L205.867 209.66ZM204.615 208.658C204.202 208.107 203.908 207.683 203.717 207.375L200.506 209.364C200.78 209.807 201.148 210.331 201.593 210.925L204.615 208.658ZM202.111 206.481H201.736V210.258H202.111V206.481ZM199.847 208.369V211.535H203.625V208.369H199.847ZM201.736 209.646H198.677V213.424H201.736V209.646ZM199.901 201.233C199.901 202.971 200.155 204.58 200.71 206.027L204.237 204.675C203.88 203.743 203.678 202.608 203.678 201.233H199.901ZM200.712 206.032C201.274 207.488 202.133 208.716 203.324 209.628L205.62 206.628C205.059 206.198 204.585 205.575 204.235 204.671L200.712 206.032ZM203.334 209.635C204.588 210.582 206.078 211.009 207.692 211.009V207.232C206.766 207.232 206.109 206.997 205.611 206.621L203.334 209.635ZM207.692 211.009C209.362 211.009 210.9 210.562 212.174 209.558L209.836 206.591C209.34 206.982 208.668 207.232 207.692 207.232V211.009ZM212.176 209.556C213.37 208.613 214.231 207.368 214.785 205.895L211.249 204.566C210.909 205.471 210.429 206.123 209.834 206.592L212.176 209.556ZM214.782 205.902C215.331 204.461 215.59 202.897 215.59 201.233H211.813C211.813 202.503 211.616 203.603 211.252 204.559L214.782 205.902ZM215.59 201.233C215.59 199.59 215.336 198.049 214.793 196.638L211.268 197.994C211.619 198.908 211.813 199.979 211.813 201.233H215.59ZM214.8 196.654C214.251 195.188 213.385 193.955 212.175 193.036L209.889 196.043C210.468 196.483 210.934 197.101 211.262 197.978L214.8 196.654ZM212.191 193.048C210.913 192.054 209.368 191.618 207.692 191.618V195.395C208.698 195.395 209.38 195.647 209.872 196.03L212.191 193.048ZM207.692 191.618C206.072 191.618 204.575 192.034 203.317 192.971L205.574 196C206.069 195.632 206.736 195.395 207.692 195.395V191.618ZM203.327 192.964C202.119 193.851 201.255 195.068 200.697 196.517L204.223 197.873C204.56 196.998 205.019 196.408 205.564 196.008L203.327 192.964ZM200.699 196.513C200.15 197.93 199.901 199.516 199.901 201.233H203.678C203.678 199.874 203.876 198.768 204.221 197.878L200.699 196.513ZM225.184 210.636L224.172 212.231L224.177 212.234L225.184 210.636ZM221.911 206.921L220.214 207.75L220.218 207.758L221.911 206.921ZM221.911 195.72L220.216 194.886L220.212 194.894L221.911 195.72ZM225.184 191.991L224.177 190.393L224.172 190.396L225.184 191.991ZM234.963 191.991L233.951 193.585L233.955 193.588L234.963 191.991ZM238.236 195.72L236.537 196.545L236.541 196.553L238.236 195.72ZM238.236 206.921L236.543 206.084L236.539 206.091L238.236 206.921ZM234.963 210.636L233.955 209.039L233.951 209.042L234.963 210.636ZM233.568 208.034L232.393 206.555L232.393 206.555L233.568 208.034ZM235.593 205.177L237.364 205.834L237.364 205.834L235.593 205.177ZM235.593 197.49L237.366 196.838L237.366 196.838L235.593 197.49ZM233.568 194.606L234.751 193.134L234.751 193.134L233.568 194.606ZM226.592 194.606L225.409 193.134L225.409 193.134L226.592 194.606ZM224.567 197.49L222.795 196.838L222.795 196.838L224.567 197.49ZM224.567 205.177L222.796 205.834L222.796 205.834L224.567 205.177ZM226.592 208.034L227.767 206.555L227.767 206.555L226.592 208.034ZM230.08 210.076C228.532 210.076 227.258 209.712 226.191 209.039L224.177 212.234C225.918 213.332 227.908 213.853 230.08 213.853V210.076ZM226.196 209.042C225.115 208.356 224.249 207.389 223.604 206.084L220.218 207.758C221.146 209.636 222.463 211.146 224.172 212.231L226.196 209.042ZM223.608 206.091C222.979 204.805 222.633 203.238 222.633 201.34H218.855C218.855 203.699 219.287 205.853 220.214 207.75L223.608 206.091ZM222.633 201.34C222.633 199.422 222.98 197.841 223.61 196.545L220.212 194.894C219.286 196.8 218.855 198.966 218.855 201.34H222.633ZM223.606 196.553C224.252 195.238 225.118 194.27 226.196 193.585L224.172 190.396C222.46 191.482 221.143 193 220.216 194.887L223.606 196.553ZM226.191 193.588C227.258 192.915 228.532 192.551 230.08 192.551V188.774C227.908 188.774 225.918 189.295 224.177 190.393L226.191 193.588ZM230.08 192.551C231.628 192.551 232.895 192.915 233.951 193.585L235.975 190.396C234.24 189.295 232.252 188.774 230.08 188.774V192.551ZM233.955 193.588C235.04 194.272 235.902 195.238 236.537 196.545L239.935 194.894C239.014 193 237.694 191.48 235.97 190.393L233.955 193.588ZM236.541 196.553C237.177 197.847 237.528 199.425 237.528 201.34H241.305C241.305 198.963 240.869 196.794 239.931 194.887L236.541 196.553ZM237.528 201.34C237.528 203.235 237.178 204.799 236.543 206.084L239.929 207.758C240.868 205.859 241.305 203.702 241.305 201.34H237.528ZM236.539 206.091C235.904 207.39 235.043 208.353 233.955 209.039L235.97 212.234C237.691 211.149 239.012 209.635 239.933 207.75L236.539 206.091ZM233.951 209.042C232.895 209.712 231.628 210.076 230.08 210.076V213.853C232.252 213.853 234.24 213.332 235.975 212.231L233.951 209.042ZM230.08 211.009C231.826 211.009 233.429 210.556 234.742 209.513L232.393 206.555C231.882 206.961 231.16 207.232 230.08 207.232V211.009ZM234.742 209.513C235.946 208.557 236.816 207.311 237.364 205.834L233.823 204.52C233.494 205.404 233.014 206.062 232.393 206.555L234.742 209.513ZM237.364 205.834C237.887 204.424 238.139 202.921 238.139 201.34H234.362C234.362 202.514 234.176 203.568 233.823 204.52L237.364 205.834ZM238.139 201.34C238.139 199.76 237.887 198.253 237.366 196.838L233.821 198.143C234.176 199.106 234.362 200.167 234.362 201.34H238.139ZM237.366 196.838C236.819 195.354 235.952 194.1 234.751 193.134L232.384 196.078C233.008 196.579 233.491 197.248 233.821 198.143L237.366 196.838ZM234.751 193.134C233.438 192.079 231.831 191.618 230.08 191.618V195.395C231.155 195.395 231.873 195.667 232.384 196.078L234.751 193.134ZM230.08 191.618C228.329 191.618 226.722 192.079 225.409 193.134L227.776 196.078C228.287 195.667 229.005 195.395 230.08 195.395V191.618ZM225.409 193.134C224.208 194.1 223.341 195.354 222.795 196.838L226.339 198.143C226.669 197.248 227.153 196.579 227.776 196.078L225.409 193.134ZM222.795 196.838C222.273 198.253 222.021 199.76 222.021 201.34H225.798C225.798 200.167 225.984 199.106 226.339 198.143L222.795 196.838ZM222.021 201.34C222.021 202.921 222.273 204.424 222.796 205.834L226.338 204.52C225.984 203.568 225.798 202.514 225.798 201.34H222.021ZM222.796 205.834C223.344 207.311 224.214 208.557 225.418 209.513L227.767 206.555C227.147 206.062 226.666 205.404 226.338 204.52L222.796 205.834ZM225.418 209.513C226.731 210.556 228.334 211.009 230.08 211.009V207.232C229 207.232 228.278 206.961 227.767 206.555L225.418 209.513ZM257.234 190.931V189.042H255.345V190.931H257.234ZM260.4 190.931H262.288V189.042H260.4V190.931ZM260.4 211.535V213.424H262.288V211.535H260.4ZM257.234 211.535H255.345V213.424H257.234V211.535ZM257.234 208.047H259.123V206.159H257.234V208.047ZM257.019 208.047V206.159H255.811L255.304 207.256L257.019 208.047ZM254.766 210.717L255.86 212.257L255.869 212.25L254.766 210.717ZM247.468 210.958L246.531 212.598L246.542 212.605L247.468 210.958ZM245.107 208.383L243.415 209.222L243.418 209.227L245.107 208.383ZM244.249 190.931V189.042H242.36V190.931H244.249ZM247.415 190.931H249.303V189.042H247.415V190.931ZM248.676 207.404L247.299 208.697L247.306 208.704L248.676 207.404ZM254.323 208.141L253.493 206.445L253.486 206.448L254.323 208.141ZM256.389 206.29L254.825 205.231L254.817 205.243L256.389 206.29ZM259.123 203.111V190.931H255.345V203.111H259.123ZM257.234 192.82H260.4V189.042H257.234V192.82ZM258.511 190.931V211.535H262.288V190.931H258.511ZM260.4 209.646H257.234V213.424H260.4V209.646ZM259.123 211.535V208.047H255.345V211.535H259.123ZM257.234 206.159H257.019V209.936H257.234V206.159ZM255.304 207.256C254.97 207.98 254.442 208.623 253.663 209.184L255.869 212.25C257.128 211.344 258.103 210.207 258.734 208.839L255.304 207.256ZM253.672 209.177C253.042 209.624 252.163 209.915 250.902 209.915V213.692C252.754 213.692 254.45 213.258 255.86 212.257L253.672 209.177ZM250.902 209.915C249.899 209.915 249.08 209.698 248.394 209.312L246.542 212.605C247.859 213.345 249.33 213.692 250.902 213.692V209.915ZM248.405 209.318C247.762 208.951 247.221 208.387 246.797 207.538L243.418 209.227C244.138 210.668 245.171 211.821 246.531 212.598L248.405 209.318ZM246.799 207.543C246.394 206.727 246.138 205.585 246.138 204.023H242.36C242.36 205.967 242.676 207.731 243.415 209.222L246.799 207.543ZM246.138 204.023V190.931H242.36V204.023H246.138ZM244.249 192.82H247.415V189.042H244.249V192.82ZM245.526 190.931V203.809H249.303V190.931H245.526ZM245.526 203.809C245.526 205.678 246.059 207.378 247.299 208.697L250.052 206.11C249.611 205.641 249.303 204.944 249.303 203.809H245.526ZM247.306 208.704C248.538 210.001 250.128 210.634 251.922 210.634V206.856C251.087 206.856 250.513 206.595 250.045 206.103L247.306 208.704ZM251.922 210.634C253.041 210.634 254.126 210.346 255.16 209.834L253.486 206.448C252.892 206.742 252.377 206.856 251.922 206.856V210.634ZM255.153 209.838C256.303 209.275 257.238 208.422 257.96 207.338L254.817 205.243C254.431 205.822 253.988 206.202 253.493 206.445L255.153 209.838ZM257.952 207.349C258.78 206.128 259.123 204.67 259.123 203.111H255.345C255.345 204.127 255.124 204.789 254.825 205.231L257.952 207.349ZM275.159 190.931H277.047V189.042H275.159V190.931ZM275.159 193.614V195.502H277.047V193.614H275.159ZM264.481 193.614H262.592V195.502H264.481V193.614ZM264.481 190.931V189.042H262.592V190.931H264.481ZM267.593 185.994V184.106H265.704V185.994H267.593ZM270.759 185.994H272.647V184.106H270.759V185.994ZM271.148 207.645L269.514 208.593L269.525 208.612L269.537 208.631L271.148 207.645ZM272.167 208.53L271.513 210.302L271.535 210.31L271.559 210.318L272.167 208.53ZM274.354 208.691L274.652 210.556L274.688 210.551L274.724 210.543L274.354 208.691ZM274.89 208.584L276.732 208.167L276.326 206.371L274.52 206.732L274.89 208.584ZM275.534 211.428L276.197 213.196L277.74 212.618L277.376 211.011L275.534 211.428ZM274.635 211.669L274.249 209.821L274.228 209.825L274.208 209.83L274.635 211.669ZM270.544 211.227L269.765 212.947L269.772 212.95L270.544 211.227ZM268.425 209.469L266.881 210.557L266.885 210.563L266.889 210.569L268.425 209.469ZM273.27 190.931V193.614H277.047V190.931H273.27ZM275.159 191.725H264.481V195.502H275.159V191.725ZM266.37 193.614V190.931H262.592V193.614H266.37ZM264.481 192.82H275.159V189.042H264.481V192.82ZM267.593 187.883H270.759V184.106H267.593V187.883ZM268.87 185.994V205.633H272.647V185.994H268.87ZM268.87 205.633C268.87 206.648 269.006 207.717 269.514 208.593L272.782 206.697C272.786 206.705 272.747 206.639 272.71 206.448C272.674 206.261 272.647 205.994 272.647 205.633H268.87ZM269.537 208.631C269.987 209.366 270.638 209.979 271.513 210.302L272.822 206.759C272.827 206.761 272.833 206.763 272.838 206.767C272.844 206.77 272.845 206.771 272.842 206.769C272.837 206.765 272.806 206.736 272.759 206.659L269.537 208.631ZM271.559 210.318C272.184 210.531 272.833 210.634 273.495 210.634V206.856C273.227 206.856 272.991 206.816 272.776 206.742L271.559 210.318ZM273.495 210.634C273.897 210.634 274.292 210.614 274.652 210.556L274.055 206.826C273.968 206.84 273.791 206.856 273.495 206.856V210.634ZM274.724 210.543C274.948 210.499 275.127 210.463 275.261 210.436L274.52 206.732C274.386 206.759 274.207 206.795 273.983 206.839L274.724 210.543ZM273.048 209.001L273.692 211.845L277.376 211.011L276.732 208.167L273.048 209.001ZM274.871 209.659C274.788 209.691 274.595 209.748 274.249 209.821L275.022 213.518C275.445 213.43 275.852 213.326 276.197 213.196L274.871 209.659ZM274.208 209.83C274.014 209.875 273.683 209.915 273.173 209.915V213.692C273.844 213.692 274.488 213.643 275.063 213.509L274.208 209.83ZM273.173 209.915C272.559 209.915 271.945 209.784 271.316 209.503L269.772 212.95C270.861 213.438 271.999 213.692 273.173 213.692V209.915ZM271.323 209.506C270.788 209.264 270.338 208.898 269.96 208.37L266.889 210.569C267.638 211.615 268.601 212.421 269.765 212.947L271.323 209.506ZM269.969 208.382C269.688 207.983 269.482 207.396 269.482 206.491H265.704C265.704 207.983 266.052 209.381 266.881 210.557L269.969 208.382ZM269.482 206.491V185.994H265.704V206.491H269.482ZM290.974 184.063V182.174H289.085V184.063H290.974ZM294.945 184.063L296.692 183.347L296.212 182.174H294.945V184.063ZM304.281 206.867L302.533 207.583L303.013 208.756H304.281V206.867ZM304.603 206.867V208.756H305.87L306.351 207.583L304.603 206.867ZM313.939 184.063V182.174H312.671L312.191 183.347L313.939 184.063ZM317.91 184.063H319.798V182.174H317.91V184.063ZM317.91 211.535V213.424H319.798V211.535H317.91ZM314.798 211.535H312.909V213.424H314.798V211.535ZM314.798 190.663H316.686V188.774H314.798V190.663ZM314.529 190.663V188.774H313.264L312.783 189.944L314.529 190.663ZM305.944 211.535V213.424H307.21L307.691 212.254L305.944 211.535ZM302.939 211.535L301.193 212.254L301.674 213.424H302.939V211.535ZM294.354 190.663L296.101 189.944L295.62 188.774H294.354V190.663ZM294.086 190.663V188.774H292.197V190.663H294.086ZM294.086 211.535V213.424H295.975V211.535H294.086ZM290.974 211.535H289.085V213.424H290.974V211.535ZM290.974 185.952H294.945V182.174H290.974V185.952ZM293.197 184.778L302.533 207.583L306.029 206.151L296.692 183.347L293.197 184.778ZM304.281 208.756H304.603V204.978H304.281V208.756ZM306.351 207.583L315.687 184.778L312.191 183.347L302.855 206.151L306.351 207.583ZM313.939 185.952H317.91V182.174H313.939V185.952ZM316.021 184.063V211.535H319.798V184.063H316.021ZM317.91 209.646H314.798V213.424H317.91V209.646ZM316.686 211.535V190.663H312.909V211.535H316.686ZM314.798 188.774H314.529V192.551H314.798V188.774ZM312.783 189.944L304.197 210.817L307.691 212.254L316.276 191.381L312.783 189.944ZM305.944 209.646H302.939V213.424H305.944V209.646ZM304.686 210.817L296.101 189.944L292.608 191.381L301.193 212.254L304.686 210.817ZM294.354 188.774H294.086V192.551H294.354V188.774ZM292.197 190.663V211.535H295.975V190.663H292.197ZM294.086 209.646H290.974V213.424H294.086V209.646ZM292.863 211.535V184.063H289.085V211.535H292.863ZM327.652 210.65L326.658 212.256L326.67 212.263L327.652 210.65ZM324.338 206.947L322.638 207.769L322.643 207.781L324.338 206.947ZM324.338 195.814L322.636 194.995L322.634 194.999L324.338 195.814ZM327.585 192.031L328.616 193.613L328.618 193.612L327.585 192.031ZM335.647 191.199L336.258 189.412L336.258 189.412L335.647 191.199ZM338.504 192.943L337.212 194.321L337.22 194.328L338.504 192.943ZM340.556 196.109L342.317 195.426L342.317 195.426L340.556 196.109ZM341.321 202.306V204.195H343.21V202.306H341.321ZM325.438 202.306H323.55V204.195H325.438V202.306ZM325.438 199.57V197.681H323.55V199.57H325.438ZM338.101 199.57V201.458H339.99V199.57H338.101ZM337.404 196.458L335.715 197.302L335.718 197.309L335.721 197.315L337.404 196.458ZM335.445 194.298L334.441 195.898L334.449 195.902L335.445 194.298ZM329.194 194.445L330.253 196.01L330.256 196.008L329.194 194.445ZM327.088 196.86L325.396 196.021L325.396 196.021L327.088 196.86ZM327.155 205.834L325.463 206.673L325.468 206.682L325.472 206.69L327.155 205.834ZM329.422 208.289L328.471 209.92L328.482 209.927L329.422 208.289ZM335.043 208.772L335.662 210.556L335.669 210.554L335.675 210.552L335.043 208.772ZM336.8 207.699L338.111 209.059L338.117 209.053L338.124 209.046L336.8 207.699ZM337.941 205.901L338.451 204.083L336.781 203.614L336.172 205.238L337.941 205.901ZM340.999 206.76L342.803 207.32L343.378 205.466L341.509 204.941L340.999 206.76ZM339.376 209.496L340.727 210.816L340.734 210.808L339.376 209.496ZM336.559 211.321L337.236 213.084L337.248 213.079L336.559 211.321ZM332.789 210.076C331.088 210.076 329.729 209.703 328.634 209.036L326.67 212.263C328.455 213.35 330.52 213.853 332.789 213.853V210.076ZM328.646 209.044C327.531 208.354 326.663 207.395 326.034 206.114L322.643 207.781C323.57 209.666 324.911 211.175 326.658 212.256L328.646 209.044ZM326.039 206.126C325.416 204.835 325.074 203.274 325.074 201.394H321.296C321.296 203.735 321.723 205.876 322.638 207.769L326.039 206.126ZM325.074 201.394C325.074 199.514 325.415 197.941 326.043 196.628L322.634 194.999C321.723 196.906 321.296 199.053 321.296 201.394H325.074ZM326.041 196.632C326.682 195.297 327.544 194.312 328.616 193.613L326.554 190.448C324.853 191.556 323.551 193.093 322.636 194.995L326.041 196.632ZM328.618 193.612C329.671 192.923 330.93 192.551 332.468 192.551V188.774C330.284 188.774 328.288 189.314 326.551 190.45L328.618 193.612ZM332.468 192.551C333.326 192.551 334.18 192.694 335.036 192.986L336.258 189.412C335.021 188.989 333.755 188.774 332.468 188.774V192.551ZM335.036 192.986C335.813 193.252 336.536 193.687 337.212 194.321L339.796 191.565C338.755 190.589 337.573 189.862 336.258 189.412L335.036 192.986ZM337.22 194.328C337.83 194.893 338.368 195.69 338.795 196.792L342.317 195.426C341.725 193.898 340.895 192.585 339.788 191.558L337.22 194.328ZM338.795 196.792C339.196 197.825 339.432 199.196 339.432 200.965H343.21C343.21 198.888 342.936 197.022 342.317 195.426L338.795 196.792ZM339.432 200.965V202.306H343.21V200.965H339.432ZM341.321 200.417H325.438V204.195H341.321V200.417ZM327.327 202.306V199.57H323.55V202.306H327.327ZM325.438 201.458H338.101V197.681H325.438V201.458ZM339.99 199.57C339.99 198.15 339.704 196.812 339.087 195.6L335.721 197.315C336.034 197.928 336.213 198.665 336.213 199.57H339.99ZM339.093 195.613C338.484 194.395 337.594 193.409 336.442 192.693L334.449 195.902C334.996 196.242 335.412 196.696 335.715 197.302L339.093 195.613ZM336.45 192.698C335.264 191.954 333.912 191.618 332.468 191.618V195.395C333.313 195.395 333.945 195.586 334.441 195.898L336.45 192.698ZM332.468 191.618C330.88 191.618 329.407 192.017 328.133 192.883L330.256 196.008C330.824 195.622 331.533 195.395 332.468 195.395V191.618ZM328.136 192.881C326.952 193.682 326.032 194.738 325.396 196.021L328.781 197.699C329.128 196.997 329.613 196.443 330.253 196.01L328.136 192.881ZM325.396 196.021C324.772 197.281 324.462 198.634 324.462 200.053H328.239C328.239 199.2 328.421 198.424 328.781 197.699L325.396 196.021ZM324.462 200.053V201.877H328.239V200.053H324.462ZM324.462 201.877C324.462 203.643 324.766 205.266 325.463 206.673L328.848 204.995C328.472 204.238 328.239 203.223 328.239 201.877H324.462ZM325.472 206.69C326.169 208.061 327.167 209.16 328.471 209.92L330.374 206.657C329.746 206.291 329.233 205.754 328.839 204.978L325.472 206.69ZM328.482 209.927C329.774 210.669 331.23 211.009 332.789 211.009V207.232C331.791 207.232 331.002 207.018 330.363 206.651L328.482 209.927ZM332.789 211.009C333.796 211.009 334.761 210.869 335.662 210.556L334.424 206.987C333.983 207.14 333.446 207.232 332.789 207.232V211.009ZM335.675 210.552C336.594 210.225 337.415 209.73 338.111 209.059L335.49 206.339C335.202 206.616 334.851 206.836 334.411 206.992L335.675 210.552ZM338.124 209.046C338.832 208.35 339.355 207.509 339.709 206.564L336.172 205.238C335.99 205.724 335.752 206.081 335.477 206.351L338.124 209.046ZM337.43 207.72L340.489 208.578L341.509 204.941L338.451 204.083L337.43 207.72ZM339.195 206.2C338.961 206.953 338.574 207.608 338.017 208.184L340.734 210.808C341.698 209.811 342.393 208.641 342.803 207.32L339.195 206.2ZM338.025 208.176C337.47 208.744 336.764 209.211 335.87 209.562L337.248 213.079C338.589 212.553 339.761 211.805 340.727 210.816L338.025 208.176ZM335.882 209.557C335.013 209.891 333.991 210.076 332.789 210.076V213.853C334.378 213.853 335.869 213.608 337.236 213.084L335.882 209.557Z" fill="black" mask="url(#path-5-outside-1_39_84)"/>
</svg>
