<svg width="130" height="119" viewBox="0 0 130 119" fill="none" xmlns="http://www.w3.org/2000/svg">
<g id="mdi:web">
<path id="Vector" d="M88.7188 64.5988C89.1493 61.0469 89.4722 57.495 89.4722 53.8354C89.4722 50.1759 89.1493 46.624 88.7188 43.0721H106.909C107.77 46.5163 108.308 50.1221 108.308 53.8354C108.308 57.5488 107.77 61.1545 106.909 64.5988M79.1932 94.521C82.4222 88.5473 84.8978 82.0893 86.6199 75.3622H102.496C97.282 84.3403 89.01 91.1413 79.1932 94.521ZM77.8478 64.5988H52.6615C52.1233 61.0469 51.8004 57.495 51.8004 53.8354C51.8004 50.1759 52.1233 46.5702 52.6615 43.0721H77.8478C78.3322 46.5702 78.7089 50.1759 78.7089 53.8354C78.7089 57.495 78.3322 61.0469 77.8478 64.5988ZM65.2546 96.6737C60.7878 90.2156 57.1821 83.058 54.9756 75.3622H75.5337C73.3272 83.058 69.7215 90.2156 65.2546 96.6737ZM43.7279 32.3087H28.0134C33.1736 23.3063 41.4396 16.4945 51.2623 13.1499C48.0332 19.1235 45.6115 25.5816 43.7279 32.3087ZM28.0134 75.3622H43.7279C45.6115 82.0893 48.0332 88.5473 51.2623 94.521C41.4602 91.1395 33.2059 84.3373 28.0134 75.3622ZM23.6004 64.5988C22.7393 61.1545 22.2011 57.5488 22.2011 53.8354C22.2011 50.1221 22.7393 46.5163 23.6004 43.0721H41.7905C41.36 46.624 41.0371 50.1759 41.0371 53.8354C41.0371 57.495 41.36 61.0469 41.7905 64.5988M65.2546 10.9434C69.7215 17.4014 73.3272 24.6129 75.5337 32.3087H54.9756C57.1821 24.6129 60.7878 17.4014 65.2546 10.9434ZM102.496 32.3087H86.6199C84.9356 25.6432 82.4415 19.2091 79.1932 13.1499C89.0955 16.5403 97.3295 23.3751 102.496 32.3087ZM65.2546 0.0185547C35.4939 0.0185547 11.4378 24.2362 11.4378 53.8354C11.4378 68.1086 17.1077 81.7971 27.2004 91.8897C32.1977 96.8871 38.1305 100.851 44.6598 103.556C51.1892 106.26 58.1873 107.652 65.2546 107.652C79.5278 107.652 93.2163 101.982 103.309 91.8897C113.402 81.7971 119.072 68.1086 119.072 53.8354C119.072 46.7681 117.68 39.77 114.975 33.2406C112.27 26.7112 108.306 20.7785 103.309 15.7812C98.3116 10.7838 92.3788 6.81967 85.8495 4.11512C79.3201 1.41057 72.322 0.0185547 65.2546 0.0185547Z" fill="black"/>
</g>
</svg>
